<?xml version="1.0" encoding="utf-8"?>
<!DOCTYPE svg PUBLIC "-//W3C//DTD SVG 1.1//EN" "http://www.w3.org/Graphics/SVG/1.1/DTD/svg11.dtd">
<svg style="width:308px;height:308px;" version="1.1" id="图形" xmlns="http://www.w3.org/2000/svg" xmlns:xlink="http://www.w3.org/1999/xlink" x="0px" y="0px" width="1024px" height="1024px" viewBox="0 0 1024 1024" enable-background="new 0 0 1024 1024" xml:space="preserve">
  <path class="svgpath" data-index="path_0" fill="#ffffff" d="M977.515 145.997c-6.55-20.737-20.297-42.192-38.88-60.627-18.27-18.124-39.629-31.835-60.321-38.752C862.692 40.12 756.524 0.104 512.014 0l-0.953 0C268.79 0 162.623 39.551 145.962 46.446c-20.722 6.562-42.172 20.311-60.616 38.889-18.124 18.256-31.854 39.591-38.804 60.257C39.944 161.316 0 266.705 0 512.005 0 755.74 39.437 861.339 46.412 878.101c6.577 20.714 20.341 42.147 38.932 60.57 18.273 18.108 39.628 31.821 60.306 38.754C161.321 983.969 267.232 1024 512 1024c243.239 0 349.351-39.533 366.045-46.449 20.726-6.563 42.169-20.318 60.597-38.907 18.12-18.278 31.83-39.643 38.747-60.333C983.881 862.7 1024 756.294 1024 512.005 1024 269.241 984.38 162.639 977.515 145.997zM939.066 775.504c-10.021 52.4-20.165 76.81-20.867 78.463l-0.669 1.434-0.619 1.943c-3.526 11.075-11.305 22.993-20.911 33.332L896 544 768 544l0 396.537c-17.399 3.15-38.672 6.425-64 9.37L704 768 576 768l0 191.001c-20.053 0.641-41.372 0.999-64 0.999L512 640 384 640l0 315.789c-23.666-1.646-44.979-3.671-64-5.882L320 512.006C320 494.333 305.678 480 288.01 480l-64.02 0c-17.664 0-31.99 14.329-31.99 32.006L192 925.74c-13.976-4.147-21.028-7.09-21.905-7.464l-1.445-0.68-1.973-0.63c-24.282-7.749-52.64-35.867-59.498-58.99l-0.64-2.159-0.936-2.048c-0.095-0.209-9.84-22.344-19.955-73.758C75.772 729.811 64 642.563 64 512.005c0-89.341 5.527-158.307 12.101-208.739 17.061-2.033 47.612-4.736 84.782-3.902 51.925 1.164 127.943 9.666 195.218 43.554 67.61 34.057 116.603 82.014 145.797 116.247 32.07 37.606 48.062 67.48 48.189 67.721l31.271 59.505 26.471-61.789c10.881-25.398 46.498-99.294 80.193-135.747 20.359-22.025 47.006-39.433 67.978-51.104l0 70.288c0 7.022 9.305 10.587 14.857 5.709l122.477-104.038c3.555-3.128 3.555-8.291 0-11.419L770.857 194.252c-5.553-4.878-14.857-1.312-14.857 5.709l0 66.087c-22.524 10.24-76.208 37.426-114.974 79.362-25.738 27.843-49.815 68.894-66.892 101.631-34.392-46.256-96.521-114.577-189.242-161.283-78.459-39.522-165.213-49.229-224.175-50.413-29.325-0.588-54.76 0.782-73.823 2.458 9.261-45.029 18.064-66.064 18.747-67.657l0.692-1.46 0.642-2.005c7.767-24.266 35.913-52.603 59.053-59.452l2.117-0.627 2.011-0.911c0.212-0.096 22.627-9.887 74.093-20.023C294.449 75.784 381.486 64 511.061 64l0.926 0c127.479 0.054 213.718 11.436 263.615 20.974 52.363 10.009 76.705 20.126 78.358 20.83l1.436 0.671 1.953 0.621c24.241 7.715 52.537 35.798 59.365 58.919l0.52 1.944 0.963 2.071c0.685 1.609 10.838 26.017 20.87 78.472C948.616 298.434 960 384.68 960 512.005 960 639.329 948.616 725.574 939.066 775.504z" />

</svg>
