<?xml version="1.0" encoding="utf-8"?>
<!DOCTYPE svg PUBLIC "-//W3C//DTD SVG 1.1//EN" "http://www.w3.org/Graphics/SVG/1.1/DTD/svg11.dtd">
<svg style="width:308px;height:308px;" version="1.1" id="图形" xmlns="http://www.w3.org/2000/svg" xmlns:xlink="http://www.w3.org/1999/xlink" x="0px" y="0px" width="1024px" height="1024px" viewBox="0 0 1024 1024" enable-background="new 0 0 1024 1024" xml:space="preserve">
  <path class="svgpath" data-index="path_0" fill="#ffffff" d="M514.009 4.725c-280.162 0-507.274 227.116-507.274 507.274s227.116 507.275 507.274 507.275c280.235 0 507.274-227.116 507.274-507.275s-227.116-507.274-507.274-507.274zM812.577 870.572c-32.393-16.234-140.876-37.756-167.111-54.205-29.856-18.842-20.291-121.748-20.291-121.748l20.291-17.755c0 0 5.147-46.598 13.984-63.407 19.712-37.827 40.582-101.455 40.582-101.455s20.291-14.783 20.291-40.582-20.291-40.582-20.291-40.582 7.609-71.815 7.609-121.748c0-104.86-65.802-162.327-184.14-162.327-118.269 0-204.577 48.843-204.577 162.327 0 49.931 15.87 121.748 15.87 121.748s-20.291 14.783-20.291 40.582 20.291 40.582 20.291 40.582 23.696 73.63 40.582 101.455c9.855 16.234 13.914 63.407 13.914 63.407l20.292 17.755c0 0 9.637 102.905-20.292 121.748-27.030 16.959-142.329 39.423-170.517 55.873 1.377 1.303 70.437 60.727 177.403 90.875-200.518-52.251-348.86-234.070-348.86-451.113 0-257.77 208.926-466.619 466.693-466.619s466.693 208.926 466.693 466.619c-0.001 144.14-65.439 272.987-168.126 358.572zM434.729 971.446c-11.522-1.956-22.755-4.42-33.987-7.173 10.798 2.899 22.538 4.999 33.987 7.173z" />

</svg>
